<?xml version="1.0" encoding="utf-8"?>
<!-- Generator: Adobe Illustrator 23.0.3, SVG Export Plug-In . SVG Version: 6.00 Build 0)  -->
<svg version="1.1" id="Layer_1" xmlns="http://www.w3.org/2000/svg" xmlns:xlink="http://www.w3.org/1999/xlink" x="0px" y="0px"
	 viewBox="0 0 350 350" style="enable-background:new 0 0 350 350;" xml:space="preserve">
<g>
	<path style="fill:#FFFFFF;" d="M98,326.3h176.4V166.6H98V326.3z M120.8,201.9h129.4v33.4H120.8V201.9z"/>
	<path style="fill:#FFFFFF;" d="M184.3,139.6c0.2,0.1,0.4,0.2,0.6,0.3c0.1,0,0.1,0.1,0.2,0.1c0.4,0.2,0.8,0.3,1.2,0.3
		c0.7,0,1.3-0.2,1.9-0.7L241.8,92c0.6-0.5,0.9-1.3,0.9-2.1c0-0.2-0.1-0.4-0.1-0.6c0-0.1,0-0.2,0-0.2c-0.2-0.5-0.4-0.9-0.8-1.3
		c0,0,0,0,0,0c0,0,0,0,0,0l-22.9-20.4c0,0,0,0,0,0c0,0,0,0-0.1-0.1c0,0-0.1-0.1-0.2-0.1c0,0,0,0-0.1,0c-0.5-0.4-1.1-0.6-1.7-0.6
		h-30.6c0,0-30.8-0.1-30.9-0.1c-0.2,0-0.4,0-0.6,0.1c-0.8,0.2-1.5,0.7-1.8,1.4l-22.3,19.9c0,0,0,0,0,0c0,0,0,0,0,0
		c-0.6,0.5-1,1.3-1,2.1c0,0.8,0.3,1.6,0.9,2.1L184.3,139.6z M236.7,87h-13c-0.9-3.6-2.4-10.6-3.3-14.5L236.7,87z M216.9,69.4
		c-0.1-0.1,2.5,11.7,3.9,17.6h-13L216.9,69.4z M218.4,89.8c-4,5.3-21.8,30.4-31.4,43l19.3-43H218.4z M213.8,69.3l-8.2,15.8
		l-15.8-15.8H213.8z M186.2,69.6L203.6,87h-17.4V69.6z M186.2,89.8h17.1l-17.1,39.7V89.8z M221.5,89.8h18.4l0.1,0.1L186.2,137
		C195.4,124.9,221.6,90.1,221.5,89.8z M184.1,131.1c-8.8-11.6-26-35.9-30.1-41.3H166L184.1,131.1z M169.1,89.8h14.3l0.4,36.6
		L169.1,89.8z M183.4,87h-14.5l14.5-14.6V87z M182.6,69.3l-15.8,15.8l-8.2-15.8H182.6z M155.5,69.4l9.1,17.6h-13
		C153,81.1,155.6,69.3,155.5,69.4z M152,72.5c-0.9,4.2-2.4,10.9-3.3,14.5h-13L152,72.5z M132.5,89.8h18.4
		c-0.1,0.3,32.5,45.2,32.5,45.2L132.5,89.8L132.5,89.8z"/>
	<path style="fill:#FFFFFF;" d="M274.4,37.8v-0.1H98v0.1h-0.2l0.2,0.1v125h22.2h14.9v0.1h100.3v-0.1h16.8h22.2v-125l0.2-0.1H274.4z
		 M120.2,157.9H103V42.7h0.6l16.6,14V157.9z M247.1,157.9h-11.8v-15.4H135.1v15.4h-9.9V56.7h121.9V157.9z M122,51.6l-10.4-8.8h149.1
		l-10.4,8.8H122z M269.3,157.9h-17.1V56.7h-0.1l16.6-14h0.6V157.9z"/>
</g>
</svg>
