<?xml version="1.0" encoding="utf-8"?>
<!-- Generator: Adobe Illustrator 23.0.3, SVG Export Plug-In . SVG Version: 6.00 Build 0)  -->
<svg version="1.1" id="Layer_1" xmlns="http://www.w3.org/2000/svg" xmlns:xlink="http://www.w3.org/1999/xlink" x="0px" y="0px"
	 viewBox="0 0 350 350" style="enable-background:new 0 0 350 350;" xml:space="preserve">
<g>
	<path style="fill:#FFFFFF;" d="M42.7,115.2v1.1h264.5v-1.1L175,24.9L42.7,115.2z M194,75.9c0,10.5-8.5,19-19,19s-19-8.5-19-19
		c0-10.5,8.5-19,19-19S194,65.4,194,75.9z"/>
	<path style="fill:#FFFFFF;" d="M309.3,145.3v-18h9v-18L175,11.5L31.7,109.3v18h9v18h8.5v159.3h-8.5v18h-9v16h286.6v-16h-9v-18h-8.5
		V145.3H309.3z M38.7,120.4V113L175,19.9L311.3,113v7.4H38.7z M83.1,322.5v-18h-8.5V145.3h8.5v-18h14.7v18h8.5v159.3h-8.5v18H83.1z
		 M140.3,322.5v-18h-8.5V145.3h8.5v-18h69.4v18h8.5v159.3h-8.5v18H140.3z M275.3,304.6h-8.5v18h-14.7v-18h-8.5V145.3h8.5v-18h14.7
		v18h8.5V304.6z"/>
</g>
<g>
	<path style="fill:#FFFFFF;" d="M170.2,252c-7.1-0.3-13.9-1.9-20.4-4.7v-16c3.7,1.9,7.8,3.5,12.2,4.8c4.4,1.3,8.2,1.9,11.5,1.9
		c2.7,0,4.7-0.3,6-1c1.3-0.7,1.9-1.8,1.9-3.3c0-1.1-0.5-2-1.4-2.7c-0.9-0.7-2.4-1.6-4.6-2.5c-2.1-0.9-5-2.1-8.7-3.4
		c-4.1-1.5-7.4-3.2-9.9-5.1c-2.5-1.9-4.3-4-5.5-6.3c-1.1-2.3-1.7-5.2-1.7-8.7c0-5.3,1.7-9.5,5.1-12.5c3.4-3,8.5-4.8,15.4-5.6v-6.6
		h10v6.5c6.4,0.4,12.9,1.9,19.4,4.7l-5.8,13.8c-6.7-3-12.8-4.5-18.2-4.5c-2.6,0-4.4,0.3-5.4,0.9c-1,0.6-1.6,1.6-1.6,2.8
		c0,1.1,0.4,1.9,1.1,2.6c0.8,0.7,2.1,1.5,3.9,2.3c1.9,0.9,4.5,1.8,7.8,3c6.7,2.4,11.6,5.1,14.5,8.1c2.9,3,4.4,7,4.4,11.8
		c0,5.4-1.7,9.8-5.1,13.2c-3.4,3.4-8.4,5.5-15,6.3v9.3h-10V252z"/>
</g>
</svg>
