<?xml version="1.0" encoding="utf-8"?>
<!-- Generator: Adobe Illustrator 23.0.3, SVG Export Plug-In . SVG Version: 6.00 Build 0)  -->
<svg version="1.1" id="Layer_1" xmlns="http://www.w3.org/2000/svg" xmlns:xlink="http://www.w3.org/1999/xlink" x="0px" y="0px"
	 viewBox="0 0 350 350" style="enable-background:new 0 0 350 350;" xml:space="preserve">
<g>
	<path style="fill:#FFFFFF;" d="M132.3,146.5c-11.3-31.3,12.4-44.9,23.6-27.9c-0.2-4.9-1-9.7-2.4-14.5c-19.3-8-48.7,3.8-32.3,51.9
		C124.4,152.1,128.1,149,132.3,146.5z"/>
	<path style="fill:#FFFFFF;" d="M153.6,93.5c35,0,22,0,57,0c5.1-2.7,7.6-8,6.9-13.2c-43.4,0-27.3,0-70.8,0
		C146,85.6,148.6,90.9,153.6,93.5z"/>
	<path style="fill:#FFFFFF;" d="M208.2,118.6c11.4-17.3,34.8-3.1,23.6,27.9c4.3,2.6,7.9,5.7,11.1,9.5c15.8-46-11.3-60.6-32.3-51.9
		C209.2,108.9,208.4,113.7,208.2,118.6z"/>
	<path style="fill:#FFFFFF;" d="M206.8,138.8c-3.9-14.5-3.4-28,2.3-42.2h-54c5.7,14.3,6.2,27.7,2.3,42.2L206.8,138.8z"/>
	<path style="fill:#FFFFFF;" d="M154.3,284.7h55.6c2.9-5.5,8.7-15.4,14.9-27.9h0c6.5-13.1,13.5-29.1,18.4-45.9H121
		C130.6,243.9,148.3,273.5,154.3,284.7z"/>
	<path style="fill:#FFFFFF;" d="M119.3,166.3h125.6c-6.4-14.1-22.4-22.8-36.9-23.7C168.4,142.6,132.7,136.7,119.3,166.3z"/>
	<path style="fill:#FFFFFF;" d="M218,198.9v-25.4h29.3c-0.3-1.2-0.6-2.3-1-3.4H117.8c-0.4,1.1-0.7,2.2-1,3.4h27.8v20.3h-11.9v-4.1
		h7.8v-12.2h-22.7c0,22.2-0.6,19.2,2.2,29.4h124.2c0.4-1.4,0.7-2.7,1-4.1h-19v-21.3h15.5v4.1h-11.4v13.2h15.7c0.4-1.7,0.7-3.4,1-5.1
		h-10v-4.1h7.8v-12.2h-22.7V203H217v-4.1H218z M152.6,203c-18.2,0-12.5,0-30.7,0v-21.3h15.5v4.1H126v13.2c9.2,0,14.4,0,22.4,0v-25.4
		h31v20.3h-11.9v-4.1h7.8v-12.2h-22.7V203z M187.4,203c-18.2,0-12.5,0-30.7,0v-21.3h15.5v4.1h-11.4v13.2c9.2,0,14.4,0,22.4,0v-25.4
		h31v20.3h-11.9v-4.1h7.8v-12.2h-22.7V203z M217,203h-25.5v-21.3H207v4.1h-11.4v13.2H217V203z"/>
	<path style="fill:#FFFFFF;" d="M206.9,288.8h-24.8h-24.8c-6.7,0-12.2,5.4-12.2,12.2c26.7,0,47.1,0,73.9,0
		C219,294.2,213.6,288.8,206.9,288.8z"/>
</g>
</svg>
