<?xml version="1.0" encoding="utf-8"?>
<!-- Generator: Adobe Illustrator 23.0.3, SVG Export Plug-In . SVG Version: 6.00 Build 0)  -->
<svg version="1.1" id="Layer_1" xmlns="http://www.w3.org/2000/svg" xmlns:xlink="http://www.w3.org/1999/xlink" x="0px" y="0px"
	 viewBox="0 0 350 350" style="enable-background:new 0 0 350 350;" xml:space="preserve">
<g>
	<path style="fill:#FFFFFF;" d="M302.6,118.4c1.4,8.5,6.3,16.2,12.6,21.1l-8.8-27.4l-3.1-9.8c-10-2.5-19.5-7.9-27.1-15.5l-86.4,27.6
		h107.9C300.1,114.3,302.2,116.1,302.6,118.4z"/>
	<path style="fill:#FFFFFF;" d="M349.6,179l-13.4-41.9l-1.7-5.5l-15.6-48.8c-13.9,2-28.5-7.7-35-20.3l-119.3,38.1l-43,13.7h40.9
		l116.2-37.1l1.8,2c7.3,8,16.8,13.5,26.9,15.5l2.4,0.5l5.3,16.5l10.4,32.6c0.1,0,0.2,0.1,0.3,0.1c2.4,0.4,4.1,2.4,4.1,4.8v8.8
		l5.6,17.5l-1.7,1.8c-1.4,1.5-2.7,3.1-3.9,4.8v36.1l3.4-1.1c-2-13.8,4.1-30,16.4-36.6c0.1-0.1,0.2-0.1,0.4-0.2L349.6,179z"/>
	<path style="fill:#FFFFFF;" d="M259.3,215.9c0-0.3,0.1-0.7,0.2-0.9h-2.9c0.1,0.3,0.2,0.6,0.2,0.9c0,1.1-0.8,1.9-1.7,1.9
		c-0.3,0-0.6-0.1-0.9-0.3V240h0.7c0.5,0,0.9,0.4,0.9,1v2.4h4.5v-2.4c0-0.5,0.4-1,0.9-1h0.8v-22.5c-0.3,0.2-0.6,0.3-0.9,0.3
		C260.1,217.8,259.3,217,259.3,215.9z"/>
	<path style="fill:#FFFFFF;" d="M272.3,215.9c0-0.3,0.1-0.7,0.2-0.9h-2.9c0.1,0.3,0.2,0.6,0.2,0.9c0,1.1-0.8,1.9-1.7,1.9
		c-0.3,0-0.7-0.1-0.9-0.3V240h0.7c0.5,0,0.9,0.4,0.9,1v2.4h4.5v-2.4c0-0.5,0.4-1,0.9-1h0.8v-22.5c-0.3,0.2-0.6,0.3-0.9,0.3
		C273.1,217.8,272.3,217,272.3,215.9z"/>
	<path style="fill:#FFFFFF;" d="M253.8,205.4c0,2.4,1.9,4.3,4.3,4.3c2.4,0,4.3-1.9,4.3-4.3c0-2.4-1.9-4.3-4.3-4.3
		C255.7,201.2,253.8,203.1,253.8,205.4z"/>
	<path style="fill:#FFFFFF;" d="M246.3,215.9c0-0.3,0.1-0.7,0.2-0.9h-2.9c0.1,0.3,0.2,0.6,0.2,0.9c0,1.1-0.8,1.9-1.7,1.9
		c-0.3,0-0.7-0.1-0.9-0.3V240h0.7c0.5,0,0.9,0.4,0.9,1v2.4h4.5v-2.4c0-0.5,0.4-1,0.9-1h0.8v-22.5c-0.3,0.2-0.6,0.3-0.9,0.3
		C247.1,217.8,246.3,217,246.3,215.9z"/>
	<path style="fill:#FFFFFF;" d="M297.7,119.2H172.5H47.2c-2.3,13.9-13.3,27.6-27.2,29.9v51.2v51.2c13.9,2.3,24.8,16,27.2,29.9h125.3
		h125.3c2.3-13.9,13.3-27.6,27.2-29.9v-51.2v-51.2C311,146.8,300.1,133.1,297.7,119.2z M312.4,158.2v84.4l-2.1,1.2
		c-8.9,4.9-16.3,13.1-20.9,22.9l-1.1,2.4H56.6l-1.1-2.4c-4.5-9.8-11.9-18-20.9-22.9l-2.1-1.2v-84.4l2.1-1.2
		c8.9-4.9,16.3-13.1,20.9-22.9l1.1-2.4h231.7l1.1,2.4c4.5,9.8,11.9,18,20.9,22.9L312.4,158.2z"/>
	<path style="fill:#FFFFFF;" d="M234.1,213.2h48l-24-18.2L234.1,213.2z M238.8,211.3l19.3-14.3l19.3,14.3H238.8z"/>
	<path style="fill:#FFFFFF;" d="M283.1,140H61.9c-4.9,9.6-12.3,17.6-21.1,23v74.7c8.8,5.4,16.1,13.5,21.1,23h221.2
		c4.9-9.6,12.3-17.6,21.1-23V163C295.4,157.6,288,149.6,283.1,140z M241.8,152.6h9l6.5,25.7l6.2-25.7h9.1l2.9,36.8h-6.9l-1-15.4
		c-0.3-5.4-0.6-11.1-0.5-15l-6.7,26.4h-6.7l-7.1-26.4c0.2,4.9,0.1,10-0.2,15.3l-0.9,15.2h-6.8L241.8,152.6z M205.6,152.6h7v24.4
		c0,5.2,2.1,7.7,6.6,7.7c4.6,0,6.6-2.6,6.6-7.7v-24.4h7.1v24.7c0,7.4-4.7,12.8-13.7,12.8c-9,0-13.6-5.3-13.6-12.8V152.6z
		 M177.9,152.6h21.3l-0.7,5.2h-13.6V168h11.8v5.2h-11.8v10.8h14.5v5.3h-21.5V152.6z M157.3,173c-7.7-2.4-11.1-5.5-11.1-11.1
		c0-6.1,5.3-10.2,12.5-10.2c5.4,0,8.9,1.6,12.1,4.5l-3.6,4c-2.6-2.2-5.1-3.2-8.1-3.2c-3.3,0-5.7,1.5-5.7,4.4c0,2.7,1.4,3.8,7.6,5.7
		c6.4,2,10.9,4.7,10.9,11.6c0,6.6-5.2,11.3-13.9,11.3c-5.9,0-10.2-2.1-13.2-5.1l3.7-4.2c2.6,2.4,5.5,3.8,9.4,3.8
		c3.9,0,6.8-1.9,6.8-5.5C164.6,176.1,163,174.7,157.3,173z M112.7,152.6h7v24.4c0,5.2,2.1,7.7,6.6,7.7c4.6,0,6.6-2.6,6.6-7.7v-24.4
		h7.1v24.7c0,7.4-4.7,12.8-13.7,12.8c-9,0-13.6-5.3-13.6-12.8V152.6z M72.3,152.6h9l6.5,25.7l6.2-25.7h9.1l2.9,36.8h-6.9l-1-15.4
		c-0.3-5.4-0.6-11.1-0.5-15l-6.7,26.4h-6.6l-7.1-26.4c0.2,4.9,0.1,10-0.2,15.3l-0.9,15.2h-6.8L72.3,152.6z M66.1,196.2h168.1v8.3
		H66.1V196.2z M104.5,220.8h-7.8v25.7h-7.4v-25.7h-8.1v-5.7h24L104.5,220.8z M115.6,246.5h-7.4v-31.4h7.4V246.5z M134.5,247.3
		c-8.6,0-14.4-5.8-14.4-16.6c0-10.5,6.1-16.4,14.2-16.4c4.3,0,7.1,1.3,9.7,3.4l-3.6,4.3c-1.7-1.5-3.4-2.3-5.6-2.3
		c-4,0-6.8,3.2-6.8,10.9c0,7.6,2.8,10.8,6.9,10.8c2.5,0,4.3-1.2,6.1-2.6l3.4,4.4C142.3,245.4,138.8,247.3,134.5,247.3z M155.1,246.5
		h-7.4v-31.4h7.4V246.5z M165.3,246.5l-10-16.8l10-14.6h7.8l-10,14.1l10.8,17.3H165.3z M193.4,227.9v5.2h-9.7v8h11.8v5.4h-19.3
		v-31.4h19.3l-0.8,5.3h-11.1v7.5H193.4z M221,220.8h-7.8v25.7h-7.4v-25.7h-8.1v-5.7h24L221,220.8z M284.7,215h-2.1
		c0.1,0.3,0.2,0.6,0.2,0.9c0,1.1-0.8,1.9-1.7,1.9c-0.3,0-0.7-0.1-0.9-0.3V240h0.8c0.5,0,0.9,0.4,0.9,1v2.4h2.6v3.7h-52.7v-3.7h2.6
		v-2.4c0-0.5,0.4-1,0.8-1h0.8v-22.5c-0.3,0.2-0.6,0.3-0.9,0.3c-0.9,0-1.7-0.9-1.7-1.9c0-0.3,0.1-0.7,0.2-0.9h-2.1
		c-0.7,0-1-1-0.4-1.4l27.1-20.7l27.1,20.7C285.7,214,285.4,215,284.7,215z"/>
</g>
</svg>
