<?xml version="1.0" encoding="utf-8"?>
<!-- Generator: Adobe Illustrator 23.0.3, SVG Export Plug-In . SVG Version: 6.00 Build 0)  -->
<svg version="1.1" id="Layer_1" xmlns="http://www.w3.org/2000/svg" xmlns:xlink="http://www.w3.org/1999/xlink" x="0px" y="0px"
	 viewBox="0 0 350 350" style="enable-background:new 0 0 350 350;" xml:space="preserve">
<g>
	<rect x="166.8" y="239.1" style="fill:#FFFFFF;" width="21" height="18.5"/>
	<rect x="158.7" y="210.1" style="fill:#FFFFFF;" width="38.8" height="23.5"/>
	<path style="fill:#FFFFFF;" d="M204.8,279.9h-0.9l-14.9-17.3h-23.2l-14.9,17.3h-2.6c-5.8,0-10.5,4.7-10.5,10.5h77.6
		C215.3,284.6,210.6,279.9,204.8,279.9z"/>
	<polygon style="fill:#FFFFFF;" points="202.4,81.2 228.2,137.9 271.5,119.1 246.6,62 	"/>
	<path style="fill:#FFFFFF;" d="M92.7,125.3l28.6,63.1l28-12.2c2.8,5.3,9.2,7.7,14.8,5.3l0.3-0.2l5.2,6.5h-3l-6.4,16.8h35.6
		l-6.4-16.8h-4.8L179,175l14.4-6.3c5.6-2.4,8.2-8.8,6.2-14.5l23.7-10.3l-27.7-63.5L92.7,125.3z M202.4,121.4l-81.8,35.9l-8.3-17
		l83.6-35.1L202.4,121.4z"/>
	<polygon style="fill:#FFFFFF;" points="287.2,93.6 275.9,67.8 262,73.9 258.2,65.3 253.1,67.5 271.8,110.5 277,108.3 273.2,99.7 	
		"/>
	<path style="fill:#FFFFFF;" d="M76.3,112c-2.3,1.1-3.3,3.9-2.2,6.2l24,50.9l8.5-4l-24-50.9C81.4,111.9,78.6,110.9,76.3,112z"/>
</g>
</svg>
