<?xml version="1.0" encoding="utf-8"?>
<!-- Generator: Adobe Illustrator 23.0.3, SVG Export Plug-In . SVG Version: 6.00 Build 0)  -->
<svg version="1.1" id="Layer_1" xmlns="http://www.w3.org/2000/svg" xmlns:xlink="http://www.w3.org/1999/xlink" x="0px" y="0px"
	 viewBox="0 0 350 350" style="enable-background:new 0 0 350 350;" xml:space="preserve">
<g>
	<path style="fill:#FFFFFF;" d="M260,115.2c0.2,0,0.3-0.1,0.5-0.1c21.4-5.8,42.6-15.7,55.7-34.3c12.9-18.3,11.4-48-14.5-53
		c-24.3-4.7-49.5,12.6-68.8,25.2c-20.8,13.5-40.2,29.1-57.9,46.5c-15.4-15-32-28.7-49.7-40.9c-19.4-13.4-43-30.1-67.3-31.4
		c-26.1-1.4-38.7,22.8-28.8,45.4c9.2,21.1,31.1,33.3,52.1,40.2c2.8,0.9,5.7,1.8,8.6,2.6H22.5v68.8h21.3v139h262.2v-139h21.3v-68.8
		H260z M239.3,72.2c9.3-6.2,57.5-40.4,65.2-19.9c3.7,9.8-6.7,21.4-13.3,27c-8.6,7.3-19.3,11.8-30,15.1c-20.7,6.4-42.5,9.8-64.2,11.2
		C210.2,93.4,224.3,82.2,239.3,72.2z M59.7,80.1c-7-5.6-18-17.7-14.2-27.8c7.6-20.3,54.8,13,64.1,19.1
		c15.4,10.2,29.9,21.7,43.5,34.2c-21.3-1.4-42.7-4.6-63-10.8C79.3,91.6,68.5,87.2,59.7,80.1z M149.6,313.2H53.7V184.1h95.9V313.2z
		 M43.9,174.2H32.3V125h116.9c0.1,0,0.2,0,0.4,0v49.2H43.9z M296.3,313.2h-95.9V184.1h95.9V313.2z M317.7,174.2h-11.5H200.4V125
		h117.3V174.2z"/>
</g>
</svg>
